<?xml version="1.0" encoding="UTF-8" standalone="no"?>
<svg
   xmlns:dc="http://purl.org/dc/elements/1.1/"
   xmlns:cc="http://creativecommons.org/ns#"
   xmlns:rdf="http://www.w3.org/1999/02/22-rdf-syntax-ns#"
   xmlns:svg="http://www.w3.org/2000/svg"
   xmlns="http://www.w3.org/2000/svg"
   xmlns:sodipodi="http://sodipodi.sourceforge.net/DTD/sodipodi-0.dtd"
   xmlns:inkscape="http://www.inkscape.org/namespaces/inkscape"
   version="1.1"
   id="svg2"
   xml:space="preserve"
   width="1479.2933"
   height="518.61334"
   viewBox="0 0 1479.2933 518.61334"
   sodipodi:docname="Cirion-RGB_Positivo.eps"><metadata
     id="metadata8"><rdf:RDF><cc:Work
         rdf:about=""><dc:format>image/svg+xml</dc:format><dc:type
           rdf:resource="http://purl.org/dc/dcmitype/StillImage" /></cc:Work></rdf:RDF></metadata><defs
     id="defs6" /><sodipodi:namedview
     pagecolor="#ffffff"
     bordercolor="#666666"
     borderopacity="1"
     objecttolerance="10"
     gridtolerance="10"
     guidetolerance="10"
     inkscape:pageopacity="0"
     inkscape:pageshadow="2"
     inkscape:window-width="640"
     inkscape:window-height="480"
     id="namedview4" /><g
     id="g10"
     inkscape:groupmode="layer"
     inkscape:label="ink_ext_XXXXXX"
     transform="matrix(1.3333333,0,0,-1.3333333,0,518.61333)"><g
       id="g12"
       transform="scale(0.1)"><path
         d="m 5427.23,3352.12 c -106.81,0 -186.96,11.3 -230.89,66.45 -37.84,47.49 -37.84,112.42 -37.84,202.31 0,89.86 0,154.81 37.84,202.3 43.93,55.13 124.08,66.43 230.89,66.43 106.81,0 186.96,-11.3 230.91,-66.43 37.85,-47.49 37.85,-112.44 37.85,-202.3 0,-89.89 0,-154.82 -37.85,-202.31 -43.95,-55.15 -124.1,-66.45 -230.91,-66.45"
         style="fill:#ffffff;fill-opacity:1;fill-rule:nonzero;stroke:none"
         id="path14" /><path
         d="M 7350.62,2700.12 C 7234.59,2485.83 7131.25,2249.06 7025.94,1989.6 6938.48,1796.66 6824.7,1547.07 6714.83,1344.29 6541.43,954.582 6210.9,693.379 5690.41,504.051 L 5957.05,0 c 944.56,354.25 1286.89,984.488 1654,1888.95 80.22,176.96 186.73,406.87 284.75,595.23 -9.15,31.65 -20.63,58.31 -35.44,78.93 -64.74,90.21 -184.99,133.94 -509.74,137.01 z m 826.89,200.46 c -142.17,116.94 -334.01,166.62 -583.67,184.41 255.42,341.54 586.49,606.19 1086.11,793.56 l 265.63,-502.18 c -340.9,-124 -581.84,-273.85 -768.07,-475.79"
         style="fill:#cf2a9d;fill-opacity:1;fill-rule:nonzero;stroke:none"
         id="path16" /><path
         d="m 8268.49,2808.14 c -27.7,34.76 -58.04,65.36 -90.98,92.44 -142.17,116.94 -334.01,166.62 -583.67,184.41 -86.56,6.17 -180.05,8.51 -280.83,8.51 -458.75,0 -766.76,-48.54 -955.46,-285.36 -162.54,-203.99 -162.54,-482.88 -162.54,-868.86 0,-386.03 0,-664.92 162.54,-868.91 31.33,-39.31 66.02,-73.331 104.07,-102.909 106.2,110.449 190.15,235.109 253.21,376.829 6.48,11.95 12.97,24.09 19.47,36.35 -37.79,115.01 -37.84,308.4 -37.84,558.64 0,306.17 0,527.38 69.24,623.85 67.18,93.59 194.02,137.18 547.31,137.18 12.87,0 25.34,-0.08 37.61,-0.19 324.75,-3.07 445,-46.8 509.74,-137.01 14.81,-20.62 26.29,-47.28 35.44,-78.93 33.64,-116.34 33.8,-304.2 33.8,-544.9 0,-306.2 0,-527.43 -69.24,-623.87 -67.18,-93.64 -194.06,-137.2 -547.35,-137.2 -9.08,0 -17.92,0.05 -26.71,0.1 -74.64,-137.83 -154.56,-266.361 -243.7,-385.458 83.65,-5.641 173.64,-7.84 270.41,-7.84 458.79,0 766.76,48.547 955.48,285.358 162.56,203.99 162.56,482.88 162.56,868.91 0,385.98 0,664.87 -162.56,868.86"
         style="fill:#ffffff;fill-opacity:1;fill-rule:nonzero;stroke:none"
         id="path18" /><path
         d="m 8268.49,2808.14 c -188.72,236.82 -496.69,285.36 -955.48,285.36 -458.75,0 -766.75,-48.54 -955.46,-285.36 -162.54,-203.99 -162.54,-482.88 -162.54,-868.86 0,-386.03 0,-664.92 162.54,-868.91 31.33,-39.31 66.02,-73.331 104.07,-102.909 106.2,110.449 190.16,235.109 253.22,376.829 6.47,11.95 12.96,24.09 19.46,36.35 v 0 c -37.79,115.01 -37.84,308.4 -37.84,558.64 0,306.17 0,527.38 69.24,623.85 67.18,93.59 194.02,137.18 547.31,137.18 353.29,0 480.17,-43.59 547.35,-137.2 69.24,-96.45 69.24,-317.66 69.24,-623.83 0,-306.2 0,-527.43 -69.24,-623.87 -67.18,-93.64 -194.06,-137.2 -547.35,-137.2 -9.08,0 -17.92,0.05 -26.71,0.1 -74.64,-137.83 -154.55,-266.361 -243.7,-385.458 v 0 c 83.66,-5.641 173.64,-7.84 270.41,-7.84 458.79,0 766.76,48.547 955.48,285.358 162.56,203.99 162.56,482.88 162.56,868.91 0,385.98 0,664.87 -162.56,868.86 z m -2841.26,543.98 c 106.81,0 186.96,11.3 230.91,66.45 37.85,47.49 37.85,112.42 37.85,202.31 0,89.86 0,154.81 -37.85,202.3 -43.95,55.13 -124.1,66.43 -230.91,66.43 -106.81,0 -186.96,-11.3 -230.89,-66.43 -37.84,-47.49 -37.84,-112.44 -37.84,-202.3 0,-89.89 0,-154.82 37.84,-202.31 43.93,-55.15 124.08,-66.45 230.89,-66.45 m -647.15,-303.18 c -106.61,30.97 -473.4,44.24 -486.75,44.24 -352.82,0 -642.76,-48.61 -787.89,-285.77 -116.47,-190.33 -124.4,-445.89 -124.95,-792.56 0,-1.04 -0.03,-829.25 -0.05,-1113.061 v 0 -94.168 h 54.42 27.98 386.95 V 1940.94 c 0,306.63 0,528.15 69.33,624.77 56.3,78.4 202.06,133.71 456.64,133.71 247.47,0 404.76,-10.03 404.76,-10.03 v 359.43 0.12 z m -2134.9,303.18 c 106.81,0 186.95,11.3 230.89,66.45 37.86,47.49 37.86,112.42 37.86,202.31 0,89.86 0,154.81 -37.86,202.3 -43.94,55.13 -124.08,66.43 -230.89,66.43 -106.82,0 -186.96,-11.3 -230.9,-66.43 -37.84,-47.49 -37.84,-112.44 -37.84,-202.3 0,-89.89 0,-154.82 37.84,-202.31 43.94,-55.15 124.08,-66.45 230.9,-66.45 M 1188.7,1178.78 c -353.794,0 -549.915,43.65 -617.196,137.4 -69.332,96.58 -69.332,318.13 -69.332,624.77 0,306.63 0,528.14 69.332,624.76 67.281,93.73 264.891,137.36 617.196,137.36 l 634.36,-10.71 v 360.12 c -132.06,22.87 -443.77,44.35 -634.36,44.35 -459.407,0 -836.954,-48.62 -1025.923,-285.77 C 0,2606.78 0,2327.49 0,1940.95 0,1554.37 0,1275.08 162.777,1070.79 351.746,833.641 729.293,785.02 1188.7,785.02 c 210.49,0 483.77,10.519 651.05,44.351 V 1189.5 Z m 9743.2,1599.47 c -189,237.16 -566.5,285.77 -1025.91,285.77 -549.65,0 -979.01,-173.79 -983.44,-175.58 V 807.629 h 534.98 V 2575.19 c 0,29.04 19.86,54.4 48.14,61.03 97.87,22.91 222.4,34.04 400.32,34.04 353.81,0 517.11,-43.64 584.41,-137.39 69.3,-96.59 69.3,-318.1 69.3,-624.73 V 807.629 h 535 V 1908.14 c 0,386.54 0,665.83 -162.8,870.11 M 2394.09,807.629 h 502.85 V 3067.06 H 2394.09 Z M 5175.82,3067.06 h 502.84 V 807.629 H 5175.82 V 3067.06"
         style="fill:#29327e;fill-opacity:1;fill-rule:nonzero;stroke:none"
         id="path20" /></g></g></svg>
